<svg xmlns="http://www.w3.org/2000/svg" viewBox="0 0 512 512">
  <path
    fill="currentColor"
    d="M256,32C132.288,32,32,132.288,32,256c0,99.04,64.128,183.04,153.152,212.608
    c11.2,2.048,15.296-4.864,15.296-10.816c0-5.376-0.192-23.104-0.32-41.984c-62.336,13.568-75.456-26.88-75.456-26.88
    c-10.208-25.92-24.896-32.832-24.896-32.832c-20.352-13.888,1.536-13.6,1.536-13.6c22.528,1.6,34.4,23.104,34.4,23.104
    c19.968,34.208,52.384,24.352,65.152,18.624c2.048-14.432,7.84-24.352,14.24-29.952c-49.76-5.664-102.048-24.96-102.048-111.168
    c0-24.576,8.8-44.672,23.2-60.48c-2.368-5.696-10.048-28.608,2.208-59.648c0,0,18.88-6.048,61.76,23.104
    c17.92-4.96,37.12-7.456,56.24-7.552c19.104,0.096,38.336,2.592,56.288,7.552c42.848-29.12,61.696-23.104,61.696-23.104
    c12.288,31.04,4.64,53.952,2.272,59.648c14.4,15.808,23.168,35.904,23.168,60.48c0,86.464-52.416,105.44-102.4,111.04
    c8.064,6.912,15.296,20.512,15.296,41.344c0,29.888-0.256,53.888-0.256,61.184c0,6.016,4.032,13.024,15.36,10.784
    C415.936,439.008,480,355.008,480,256C480,132.288,379.712,32,256,32z"
  />
</svg>
