<svg xmlns="http://www.w3.org/2000/svg" viewBox="0 0 512 512">
  <path
    fill="currentColor"
    d="M417.2 64H94.8C79.1 64 64 79.2 64 94.8v322.3c0 15.6 15.1 30.8 30.8 30.8h322.3c15.6 0 30.8-15.1 30.8-30.8V94.8c-.1-15.6-15.2-30.8-30.7-30.8zM180.3 396.8h-60.1V205.7h60.1v191.1zm-30-216.8h-.4c-20.2 0-33.3-13.9-33.3-31.3 0-17.8 13.5-31.3 34.2-31.3 20.7 0 33.3 13.5 33.7 31.3 0 17.4-13.1 31.3-34.2 31.3zm245.5 216.8H335.7v-97.9c0-24.6-8.8-41.3-30.8-41.3-16.8 0-26.8 11.3-31.2 22.3-1.6 3.8-2.1 9.1-2.1 14.4v102.5h-60.1s.8-166.3 0-183.9h60.1v26.1c8-12.3 22.3-29.8 54.4-29.8 39.7 0 69.6 25.9 69.6 81.5v106.1z"
  />
</svg>
